<?xml version="1.0" standalone="no"?>
<!DOCTYPE svg PUBLIC "-//W3C//DTD SVG 20010904//EN"
 "http://www.w3.org/TR/2001/REC-SVG-20010904/DTD/svg10.dtd">
<svg version="1.0" xmlns="http://www.w3.org/2000/svg"
 width="1080.000000pt" height="1080.000000pt" viewBox="0 0 1080.000000 1080.000000"
 preserveAspectRatio="xMidYMid meet">
<metadata>
Created by potrace 1.11, written by Peter Selinger 2001-2013
</metadata>
<g transform="translate(0.000000,1080.000000) scale(0.100000,-0.100000)"
fill="#000000" stroke="none">
<path d="M4147 5702 c-26 -61 -47 -117 -47 -123 0 -15 433 -4 461 12 26 14 49
62 49 104 0 26 -9 45 -33 72 l-34 36 -175 5 -175 5 -46 -111z"/>
<path d="M5607 5780 c-14 -11 -31 -36 -37 -55 -15 -44 1 -96 37 -125 24 -19
40 -20 322 -20 464 0 600 -18 764 -100 195 -98 338 -249 403 -427 26 -71 29
-90 29 -208 0 -107 -4 -143 -22 -200 -63 -199 -254 -389 -476 -475 -144 -56
-189 -61 -610 -67 -363 -5 -389 -7 -412 -25 -37 -29 -51 -85 -32 -130 30 -71
16 -70 484 -66 418 4 418 4 518 31 111 30 272 104 367 168 148 101 278 255
344 408 50 115 66 185 71 312 17 372 -197 707 -562 879 -234 111 -291 120
-780 120 -368 0 -383 -1 -408 -20z"/>
<path d="M4337 4927 c-52 -41 -52 -136 -1 -176 26 -21 34 -21 753 -21 555 1
730 4 741 13 31 24 50 62 50 100 0 31 -7 46 -34 73 l-34 34 -723 0 -724 0 -28
-23z"/>
<path d="M3586 4048 c-14 -57 -26 -108 -26 -115 0 -6 30 -19 68 -29 57 -15
128 -18 481 -21 228 -2 425 -2 438 2 32 8 63 61 63 107 0 27 -8 47 -30 71
l-30 35 -387 5 c-381 5 -423 8 -534 42 -13 4 -21 -15 -43 -97z"/>
</g>
</svg>
